<svg xmlns="http://www.w3.org/2000/svg" width="18" height="18" viewBox="0 0 18 18">
    <g fill="none" fill-rule="evenodd">
        <g fill="#B6B6B6">
            <path d="M604 27c4.97 0 9 4.03 9 9s-4.03 9-9 9-9-4.03-9-9 4.03-9 9-9zm-.386 4.09c-.69 0-1.25.56-1.25 1.25v3.334c0 .098.01.193.033.284-.088.386.016.808.314 1.11l2.955 3.008.016.015c.455.446 1.186.438 1.631-.017.458-.467.457-1.214-.001-1.68l-2.466-2.51c.012-.068.018-.138.018-.21v-3.333c0-.69-.56-1.25-1.25-1.25z" transform="translate(-885 -922) translate(290 895)"/>
        </g>
    </g>
</svg>
