<svg height="22" viewBox="0 0 32 22" width="32" xmlns="http://www.w3.org/2000/svg"><g fill="none" fill-rule="evenodd"><rect fill="#7fb4ff" height="22" rx="2" width="32"/><path d="m10.92 17.256c1.525 0 2.72-.376 3.584-1.128s1.296-1.901 1.296-3.448v-7.104h-2.512v7.104c0 .853-.17 1.48-.512 1.88-.341.4-.96.6-1.856.6-.512 0-.92-.072-1.224-.216s-.541-.33-.712-.56c-.17-.23-.283-.493-.336-.792s-.08-.603-.08-.912v-7.104h-2.512v7.104c0 1.557.424 2.71 1.272 3.456.848.747 2.045 1.12 3.592 1.12zm9.552-.256v-4.096h2.64c.715 0 1.323-.104 1.824-.312s.91-.483 1.224-.824c.315-.341.544-.733.688-1.176s.216-.893.216-1.352c0-.47-.072-.923-.216-1.36s-.373-.827-.688-1.168-.723-.616-1.224-.824-1.11-.312-1.824-.312h-5.152v11.424zm1.952-6.048h-1.952v-3.424h1.952c.288 0 .565.021.832.064s.501.125.704.248.365.296.488.52.184.517.184.88-.061.656-.184.88-.285.397-.488.52-.437.205-.704.248-.544.064-.832.064z" fill="#fff" fill-rule="nonzero"/></g></svg>